<?xml version="1.0" encoding="UTF-8" standalone="no"?>
<!-- Created with Inkscape (http://www.inkscape.org/) -->

<svg
   width="135.73125mm"
   height="35.548527mm"
   viewBox="0 0 135.73125 35.548526"
   version="1.1"
   id="svg4515"
   inkscape:version="1.2.2 (732a01da63, 2022-12-09)"
   sodipodi:docname="ecwolf.svg"
   inkscape:export-filename="ecwolf.svg"
   inkscape:export-xdpi="96"
   inkscape:export-ydpi="96"
   xml:space="preserve"
   xmlns:inkscape="http://www.inkscape.org/namespaces/inkscape"
   xmlns:sodipodi="http://sodipodi.sourceforge.net/DTD/sodipodi-0.dtd"
   xmlns="http://www.w3.org/2000/svg"
   xmlns:svg="http://www.w3.org/2000/svg"
   xmlns:rdf="http://www.w3.org/1999/02/22-rdf-syntax-ns#"
   xmlns:cc="http://creativecommons.org/ns#"
   xmlns:dc="http://purl.org/dc/elements/1.1/"><defs
     id="defs4509"><inkscape:perspective
       sodipodi:type="inkscape:persp3d"
       inkscape:vp_x="0 : 148.49999 : 1"
       inkscape:vp_y="0 : 999.99996 : 0"
       inkscape:vp_z="210.00001 : 148.49999 : 1"
       inkscape:persp3d-origin="105 : 98.999996 : 1"
       id="perspective5098" /></defs><sodipodi:namedview
     id="base"
     pagecolor="#ffffff"
     bordercolor="#666666"
     borderopacity="1.0"
     inkscape:pageopacity="0.0"
     inkscape:pageshadow="2"
     inkscape:zoom="1.050338"
     inkscape:cx="168.04114"
     inkscape:cy="-60.932766"
     inkscape:document-units="mm"
     inkscape:current-layer="layer1"
     showgrid="false"
     inkscape:pagecheckerboard="true"
     inkscape:window-width="1366"
     inkscape:window-height="705"
     inkscape:window-x="-8"
     inkscape:window-y="-8"
     inkscape:window-maximized="1"
     inkscape:showpageshadow="2"
     inkscape:deskcolor="#d1d1d1" /><metadata
     id="metadata4512"><rdf:RDF><cc:Work
         rdf:about=""><dc:format>image/svg+xml</dc:format><dc:type
           rdf:resource="http://purl.org/dc/dcmitype/StillImage" /><dc:title /></cc:Work></rdf:RDF></metadata><g
     inkscape:label="Layer 1"
     inkscape:groupmode="layer"
     id="layer1"
     transform="translate(-41.497202,-61.321965)"><g
       id="text5080"
       style="font-size:16.9333px;line-height:1.25;font-family:'Segoe UI';-inkscape-font-specification:'Segoe UI';letter-spacing:0px;word-spacing:0px;stroke-width:0.264583"
       transform="translate(2.1166663)" /><g
       style="font-style:normal;font-variant:normal;font-weight:normal;font-stretch:normal;font-size:50.8px;line-height:1.25;font-family:Impact;-inkscape-font-specification:Impact;letter-spacing:0px;word-spacing:0px;fill:#ffffff;fill-opacity:1;stroke:none;stroke-width:0.264583"
       id="text5147"
       transform="translate(2.1166663)" /><g
       aria-label="$"
       id="text305"
       style="font-size:32.8887px;font-family:Wolfenstein;-inkscape-font-specification:Wolfenstein;fill:#ffffff;stroke-width:0.126496"
       transform="translate(4.2472046,-0.52916667)"><path
         d="m 77.298349,79.399514 v 11.511045 l -4.604393,2.631095 v -4.27553 l -2.631075,1.644435 v 1.644434 l -4.275506,2.959983 v -6.248852 l -7.564368,4.27553 v -14.14214 l -8.879889,-1.644435 h 13.155405 v 11.511045 l 3.288852,-1.973322 v -9.537723 h 4.275506 v 11.182158 l 2.631075,-1.644435 V 77.755079 H 85.849361 Z M 95.715917,72.164 86.178251,73.479548 89.79599,76.439531 H 72.693956 v -5.591079 l -1.644421,-0.986661 6.248814,-1.644434 v 6.248852 h 6.577704 L 81.244968,72.164 Z m -37.49291,2.302209 v -6.248852 l 6.248827,1.644434 -1.973311,0.986661 v 5.591079 H 45.725379 L 49.343118,73.479548 40.134302,72.164 h 13.813202 l -2.302198,2.302209 z m 11.839874,1.973322 H 65.787375 V 62.955165 l 6.248814,1.973322 -1.973308,0.986661 z"
         id="path719"
         style="fill:#ffffff" /></g><g
       aria-label="olfenstein"
       id="text14115"
       style="font-size:22.5778px;font-family:Wolfenstein;-inkscape-font-specification:Wolfenstein;letter-spacing:0.529167px;fill:#ffffff;stroke:#ffffff;stroke-width:0.264583"><path
         d="m 89.241868,90.326287 v -8.128008 h -0.903112 v 8.128008 z M 91.951204,79.714721 V 92.809845 H 85.62942 V 79.714721 Z"
         id="path2302" /><path
         d="m 96.092813,94.616069 -2.709336,1.580446 V 78.134274 l 2.709336,-1.580446 z"
         id="path2304" /><path
         d="m 100.23442,93.487179 -2.709332,1.580446 V 72.489824 l 4.741342,-2.935114 2.032,2.032002 -2.25778,2.483558 -1.80623,-1.12889 v 3.160892 h 2.93512 l -2.93512,1.580446 z"
         id="path2306" /><path
         d="m 107.98848,87.842729 -2.70933,1.806224 v -7.450674 h -0.90311 v 8.128008 h 3.61244 v 2.483558 H 101.6667 V 79.714721 h 6.32178 z"
         id="path2308" /><path
         d="M 115.74254,92.809845 H 113.0332 V 82.198279 h -0.90311 v 10.611566 h -2.70933 V 79.714721 h 6.32178 z"
         id="path2310" /><path
         d="m 119.88415,82.198279 v 1.580446 l 1.35467,1.354668 v 7.676452 h -4.06401 v -2.483558 h 1.12889 v -4.51556 l -1.12889,-1.12889 v -4.967116 h 4.06401 v 2.483558 z"
         id="path2312" /><path
         d="m 125.38042,93.487179 -2.70934,1.580446 V 75.424938 l 2.70934,-1.806224 v 2.483558 h 2.93511 l -2.93511,1.580446 z"
         id="path2314" /><path
         d="m 133.13447,87.842729 -2.70933,1.806224 v -7.450674 h -0.90311 v 8.128008 h 3.61244 v 2.483558 h -6.32178 V 79.714721 h 6.32178 z"
         id="path2316" /><path
         d="m 137.27608,92.809845 h -2.70933 v -8.579564 l 2.70933,-1.580446 z m 0,-11.063122 -2.70933,1.806224 v -3.38667 l 2.70933,-1.580447 z"
         id="path2318" /><path
         d="m 145.03014,92.809845 h -2.70933 V 82.198279 h -0.90312 v 10.611566 h -2.70933 V 79.714721 h 6.32178 z"
         id="path2320" /></g><g
       aria-label="3D"
       id="text14221"
       style="font-size:22.5778px;font-family:Wolfenstein;-inkscape-font-specification:Wolfenstein;letter-spacing:0.529167px;fill:#cccccc;stroke-width:0.264583"><path
         d="m 154.66127,68.362495 h -2.54 v -5.588 h 9.144 v 12.192 l -2.54,2.54 h 2.54 v 14.732 h -9.144 v -5.588 h 2.54 v -5.588 h -2.54 v -4.572 l 2.54,-2.54 z"
         style="font-size:50.8px"
         id="path2297" /><path
         d="m 166.87441,81.626929 h -0.90312 v 9.482676 l 0.90312,-0.451556 z m 2.70933,10.611566 -6.32178,3.38667 V 79.14337 h 6.32178 z"
         id="path2299" /></g></g></svg>
