<?xml version="1.0" encoding="UTF-8" standalone="no"?>
<svg
   version="1.1"
   viewBox="0 0 1070 240"
   id="svg232"
   sodipodi:docname="lindbergh.svg"
   inkscape:version="1.2.2 (732a01da63, 2022-12-09)"
   xmlns:inkscape="http://www.inkscape.org/namespaces/inkscape"
   xmlns:sodipodi="http://sodipodi.sourceforge.net/DTD/sodipodi-0.dtd"
   xmlns="http://www.w3.org/2000/svg"
   xmlns:svg="http://www.w3.org/2000/svg">
  <defs
     id="defs236" />
  <sodipodi:namedview
     id="namedview234"
     pagecolor="#ffffff"
     bordercolor="#000000"
     borderopacity="0.25"
     inkscape:showpageshadow="2"
     inkscape:pageopacity="0.0"
     inkscape:pagecheckerboard="true"
     inkscape:deskcolor="#d1d1d1"
     showgrid="false"
     inkscape:zoom="4.201352"
     inkscape:cx="180.53712"
     inkscape:cy="159.71049"
     inkscape:window-width="1366"
     inkscape:window-height="705"
     inkscape:window-x="-8"
     inkscape:window-y="-8"
     inkscape:window-maximized="1"
     inkscape:current-layer="g196" />
  <g
     stroke-width="2.00"
     fill="none"
     stroke-linecap="butt"
     id="g160">
    <path
       stroke="#808080"
       vector-effect="non-scaling-stroke"
       d="   M 658.66 176.52   L 662.81 170.96   A 1.15 1.13 17.9 0 1 663.73 170.50   L 672.92 170.50   A 0.53 0.53 0.0 0 1 673.44 170.93   L 674.35 175.69   A 0.97 0.95 63.0 0 1 674.07 176.57   Q 672.74 177.80 670.90 177.46   A 0.52 0.52 0.0 0 0 670.29 177.90   L 670.25 178.22   A 0.47 0.47 0.0 0 0 670.72 178.75   L 679.80 178.75   A 0.76 0.75 24.3 0 0 680.29 178.57   L 680.51 178.37   A 0.39 0.39 0.0 0 0 680.39 177.71   L 679.36 177.30   A 1.20 1.19 -89.0 0 1 678.66 176.57   Q 677.20 172.28 677.36 167.76   Q 677.39 167.13 677.04 166.75   A 1.30 1.27 23.7 0 1 676.70 165.91   Q 676.57 160.17 675.40 154.49   Q 674.98 152.46 673.71 154.10   Q 664.90 165.47 656.42 175.95   C 655.43 177.18 654.10 177.46 652.65 177.71   A 0.51 0.51 0.0 0 0 652.24 178.33   C 652.40 178.98 658.40 178.77 660.67 178.71   C 660.93 178.70 661.35 178.41 661.41 178.21   A 0.51 0.51 0.0 0 0 660.97 177.55   L 659.04 177.37   Q 658.08 177.28 658.66 176.52"
       id="path120" />
    <path
       stroke="#808080"
       vector-effect="non-scaling-stroke"
       d="   M 431.73 157.73   C 428.87 160.80 428.09 165.80 433.36 166.91   Q 437.76 167.83 439.50 168.40   A 1.33 1.30 82.9 0 1 440.24 168.99   Q 441.39 170.88 440.35 172.57   Q 435.85 179.84 427.40 176.52   A 0.70 0.69 -76.8 0 1 426.96 175.80   L 427.26 172.75   A 0.22 0.22 0.0 0 0 427.04 172.50   L 426.68 172.50   A 0.83 0.82 10.4 0 0 425.89 173.04   L 424.23 177.60   A 0.61 0.61 0.0 0 0 424.62 178.39   Q 436.15 181.99 443.29 172.77   Q 446.12 169.11 443.34 165.70   A 1.59 1.59 0.0 0 0 442.54 165.19   C 439.87 164.52 431.03 164.35 433.60 159.56   Q 436.63 153.92 443.19 155.60   Q 445.99 156.32 444.30 159.00   A 0.42 0.42 0.0 0 0 444.60 159.64   L 445.22 159.74   A 0.66 0.66 0.0 0 0 445.94 159.32   L 447.52 155.32   A 0.49 0.49 0.0 0 0 447.26 154.69   Q 438.23 150.75 431.73 157.73"
       id="path122" />
    <path
       stroke="#808080"
       vector-effect="non-scaling-stroke"
       d="   M 468.57 177.28   A 0.60 0.60 0.0 0 1 468.20 176.32   L 472.33 170.92   A 1.07 1.07 0.0 0 1 473.18 170.50   L 482.66 170.50   A 0.68 0.68 0.0 0 1 483.34 171.16   L 483.50 176.63   A 0.64 0.63 -4.0 0 1 482.94 177.27   L 479.97 177.63   A 0.44 0.44 0.0 0 0 479.61 178.22   C 479.93 179.04 486.57 178.78 489.51 178.72   C 489.66 178.71 490.02 178.43 490.07 178.32   A 0.51 0.51 0.0 0 0 489.77 177.65   L 488.37 177.15   A 0.92 0.92 0.0 0 1 487.77 176.40   Q 486.87 169.36 486.17 162.28   Q 485.74 157.97 484.84 154.18   A 0.81 0.80 57.5 0 0 483.43 153.86   L 465.65 176.35   A 1.64 1.62 -79.2 0 1 464.87 176.89   L 461.64 177.89   A 0.39 0.39 0.0 0 0 461.74 178.65   C 463.23 178.71 470.67 179.02 471.04 178.42   A 0.49 0.49 0.0 0 0 470.71 177.68   L 468.57 177.28"
       id="path124" />
    <path
       stroke="#808080"
       vector-effect="non-scaling-stroke"
       d="   M 614.19 161.44   C 611.56 164.57 609.91 169.74 611.44 173.73   C 614.53 181.77 633.00 179.52 632.66 176.05   A 0.59 0.58 -3.6 0 0 632.05 175.52   C 630.95 175.55 630.35 176.26 629.39 176.53   C 608.66 182.17 612.85 156.48 629.51 155.24   Q 633.13 154.97 636.14 156.91   A 0.64 0.64 0.0 0 1 636.39 157.66   L 635.63 159.71   Q 635.37 160.42 636.11 160.28   L 636.51 160.21   A 1.10 1.09 6.3 0 0 637.30 159.58   L 639.18 155.34   A 0.38 0.38 0.0 0 0 638.95 154.82   Q 623.95 149.84 614.19 161.44"
       id="path126" />
    <path
       stroke="#808080"
       vector-effect="non-scaling-stroke"
       d="   M 175.85 175.70   A 1.99 1.98 -70.7 0 1 174.72 173.34   Q 176.94 165.39 179.45 157.60   C 180.40 154.64 184.04 155.88 184.20 154.31   A 0.50 0.49 2.6 0 0 183.70 153.77   L 174.08 153.83   A 0.59 0.58 90.0 0 0 173.50 154.42   L 173.50 154.69   A 0.57 0.56 -84.5 0 0 173.95 155.25   L 175.96 155.63   A 0.53 0.53 0.0 0 1 176.36 156.33   Q 171.62 169.40 171.01 173.24   Q 170.39 177.12 173.58 178.42   C 179.42 180.81 188.88 178.89 191.70 172.69   Q 193.19 169.42 197.33 156.25   A 0.87 0.86 -88.7 0 1 197.95 155.65   C 198.66 155.46 201.60 155.24 201.44 154.25   A 0.60 0.59 -4.5 0 0 200.85 153.75   L 192.76 153.84   A 0.58 0.57 52.1 0 0 192.62 154.97   L 194.94 155.59   A 0.45 0.45 0.0 0 1 195.26 156.15   Q 193.13 163.45 190.47 170.64   C 188.17 176.87 181.61 178.18 175.85 175.70"
       id="path128" />
    <path
       stroke="#808080"
       vector-effect="non-scaling-stroke"
       d="   M 221.75 159.02   A 0.48 0.47 41.0 0 1 222.63 158.96   Q 227.37 168.73 232.63 178.07   Q 233.81 180.16 235.75 179.05   A 1.29 1.27 84.1 0 0 236.34 178.31   Q 239.49 168.22 242.95 158.24   Q 243.46 156.77 244.13 155.91   A 1.45 1.39 9.8 0 1 244.86 155.42   L 246.92 154.82   A 0.47 0.47 0.0 0 0 246.79 153.89   L 239.39 153.89   Q 237.98 153.89 239.09 154.76   Q 239.93 155.41 241.10 155.44   A 0.48 0.48 0.0 0 1 241.54 156.07   L 235.86 173.79   A 0.53 0.53 0.0 0 1 234.88 173.87   L 224.88 154.33   A 0.94 0.92 78.2 0 0 224.13 153.83   C 223.13 153.74 218.12 153.14 218.19 154.77   A 0.51 0.51 0.0 0 0 218.73 155.25   Q 219.95 155.18 220.36 156.01   C 221.02 157.37 215.24 173.00 214.36 175.43   C 213.72 177.21 212.51 177.84 210.71 177.52   A 0.33 0.32 14.0 0 0 210.35 177.73   L 210.23 178.06   A 0.41 0.41 0.0 0 0 210.58 178.62   C 211.74 178.71 218.36 179.08 218.96 178.45   A 0.35 0.34 -59.9 0 0 218.81 177.88   L 216.73 177.27   A 0.72 0.72 0.0 0 1 216.25 176.36   L 221.75 159.02"
       id="path130" />
    <path
       stroke="#808080"
       vector-effect="non-scaling-stroke"
       d="   M 269.01 177.31   A 0.82 0.82 0.0 0 1 268.37 176.24   L 274.87 156.38   A 1.18 1.16 89.6 0 1 275.59 155.64   C 276.10 155.46 279.07 155.09 279.01 154.38   A 0.63 0.62 86.6 0 0 278.37 153.80   L 268.66 154.00   Q 266.23 154.05 268.50 154.90   L 270.66 155.71   A 0.55 0.54 18.5 0 1 271.00 156.37   Q 268.31 165.61 265.06 174.70   C 264.24 177.00 262.92 177.89 260.53 177.69   A 0.26 0.26 0.0 0 0 260.25 177.95   L 260.25 178.21   A 0.51 0.51 0.0 0 0 260.76 178.72   C 262.04 178.74 271.29 179.05 271.58 178.32   A 0.47 0.47 0.0 0 0 271.22 177.69   L 269.01 177.31"
       id="path132" />
    <path
       stroke="#808080"
       vector-effect="non-scaling-stroke"
       d="   M 306.70 173.28   L 305.32 156.71   A 1.14 1.13 83.6 0 1 306.29 155.49   L 308.78 155.12   A 0.57 0.56 85.4 0 0 309.26 154.55   L 309.25 154.25   A 0.51 0.51 0.0 0 0 308.74 153.75   L 299.84 153.75   A 0.57 0.56 4.1 0 0 299.28 154.23   L 299.24 154.51   A 0.33 0.33 0.0 0 0 299.42 154.86   Q 301.13 155.68 301.25 156.75   Q 302.47 167.61 303.52 178.64   A 0.65 0.65 0.0 0 0 304.30 179.21   C 306.20 178.80 319.45 160.06 321.63 157.21   C 322.53 156.02 323.98 155.44 324.95 154.21   Q 325.26 153.80 324.75 153.80   L 317.27 153.87   A 0.46 0.46 0.0 0 0 317.11 154.76   L 319.42 155.64   A 0.60 0.60 0.0 0 1 319.69 156.56   L 307.30 173.44   A 0.34 0.33 -29.4 0 1 306.70 173.28"
       id="path134" />
    <path
       stroke="#808080"
       vector-effect="non-scaling-stroke"
       d="   M 349.71 164.46   L 352.63 156.25   A 0.76 0.75 -80.1 0 1 353.34 155.75   L 361.25 155.75   A 0.69 0.68 0.8 0 1 361.94 156.45   L 361.88 159.03   A 0.66 0.65 14.5 0 0 362.24 159.63   L 362.50 159.76   A 0.34 0.33 23.6 0 0 362.95 159.59   L 365.18 154.31   A 0.40 0.40 0.0 0 0 364.81 153.75   L 346.84 153.75   A 0.57 0.57 0.0 0 0 346.28 154.23   L 346.24 154.52   A 0.69 0.68 11.4 0 0 346.76 155.29   L 348.18 155.63   A 0.60 0.60 0.0 0 1 348.61 156.40   Q 345.54 166.07 342.19 175.66   C 341.76 176.91 341.05 177.30 339.99 177.90   A 0.45 0.45 0.0 0 0 340.21 178.75   L 356.97 178.74   A 1.43 1.42 -79.0 0 0 358.29 177.84   L 360.16 173.10   A 0.39 0.39 0.0 0 0 360.01 172.64   L 359.76 172.49   A 0.52 0.52 0.0 0 0 359.04 172.67   L 356.82 176.22   A 0.99 0.99 0.0 0 1 355.98 176.69   L 346.31 176.78   A 0.49 0.49 0.0 0 1 345.84 176.14   L 348.68 167.71   A 0.94 0.93 -80.1 0 1 349.58 167.07   L 356.08 167.15   A 0.59 0.58 -81.3 0 1 356.63 167.91   L 356.13 169.56   A 0.54 0.53 -81.8 0 0 356.64 170.25   L 356.97 170.25   A 0.52 0.51 -80.1 0 0 357.47 169.89   L 359.90 162.62   A 0.43 0.42 25.5 0 0 359.72 162.12   L 359.47 161.97   A 0.53 0.53 0.0 0 0 358.72 162.18   L 357.54 164.53   A 0.87 0.86 13.5 0 1 356.77 165.00   L 350.09 165.00   A 0.40 0.40 0.0 0 1 349.71 164.46"
       id="path136" />
    <path
       stroke="#808080"
       vector-effect="non-scaling-stroke"
       d="   M 388.83 177.51   A 1.37 1.36 -76.6 0 1 387.77 175.78   Q 390.58 166.38 393.49 158.51   C 393.99 157.15 394.02 155.85 395.81 155.58   C 408.19 153.68 402.14 166.14 393.00 165.20   A 0.53 0.53 0.0 0 0 392.47 165.96   L 398.10 178.10   A 0.91 0.88 -7.7 0 0 398.79 178.61   C 399.78 178.73 403.81 179.04 404.00 178.39   A 0.55 0.54 18.8 0 0 403.66 177.71   C 401.45 176.94 399.40 171.53 397.41 167.18   A 0.50 0.49 65.7 0 1 397.65 166.52   C 401.17 164.91 404.69 163.81 406.47 160.01   C 408.79 155.05 403.34 153.42 399.75 153.67   Q 393.93 154.08 388.12 153.76   A 0.56 0.56 0.0 0 0 387.53 154.26   L 387.49 154.65   A 0.72 0.72 0.0 0 0 388.15 155.45   L 390.03 155.61   A 0.44 0.44 0.0 0 1 390.41 156.18   L 383.71 176.46   A 1.08 1.07 -85.9 0 1 382.87 177.19   L 379.92 177.73   A 0.39 0.39 0.0 0 0 379.63 178.27   C 379.96 179.02 386.88 178.78 390.01 178.72   C 390.14 178.72 390.52 178.44 390.56 178.35   A 0.41 0.41 0.0 0 0 390.26 177.77   L 388.83 177.51"
       id="path138" />
    <path
       stroke="#808080"
       vector-effect="non-scaling-stroke"
       d="   M 518.18 176.11   L 524.66 156.53   A 1.26 1.26 0.0 0 1 525.44 155.75   L 528.44 154.70   A 0.53 0.52 34.5 0 0 528.25 153.68   L 518.60 153.99   Q 517.84 154.02 518.24 154.66   Q 518.86 155.64 520.07 155.62   A 0.74 0.74 0.0 0 1 520.79 156.57   Q 517.91 166.12 514.24 176.10   C 513.90 177.04 513.12 177.49 512.23 177.75   A 0.32 0.32 0.0 0 0 512.01 178.10   L 512.05 178.37   A 0.45 0.44 85.5 0 0 512.49 178.75   L 530.01 178.75   A 0.83 0.82 11.2 0 0 530.77 178.25   L 532.93 173.16   A 0.45 0.44 -75.5 0 0 532.57 172.54   L 532.29 172.51   A 0.80 0.79 -72.8 0 0 531.54 172.91   L 529.64 176.25   A 1.01 0.98 14.2 0 1 528.77 176.75   L 518.64 176.75   A 0.49 0.49 0.0 0 1 518.18 176.11"
       id="path140" />
    <path
       stroke="#808080"
       vector-effect="non-scaling-stroke"
       d="   M 719.58 164.99   A 0.34 0.34 0.0 0 1 719.51 164.32   Q 725.70 163.05 726.67 156.91   A 1.27 1.24 -60.0 0 0 726.42 155.93   C 723.87 152.66 715.29 153.68 709.29 153.78   A 0.93 0.91 13.0 0 0 708.49 154.27   L 708.35 154.55   A 0.52 0.52 0.0 0 0 708.70 155.30   L 710.25 155.63   A 0.62 0.61 -75.5 0 1 710.70 156.41   Q 707.83 166.03 704.44 175.50   C 703.97 176.79 703.18 177.48 701.98 177.95   A 0.38 0.38 0.0 0 0 702.11 178.68   C 709.92 178.90 717.58 180.02 722.81 172.66   C 723.97 171.02 723.87 169.22 723.74 167.30   A 1.35 1.33 -71.7 0 0 723.29 166.39   Q 721.75 165.00 719.58 164.99"
       id="path142" />
    <path
       stroke="#808080"
       vector-effect="non-scaling-stroke"
       d="   M 753.44 156.43   Q 750.66 165.24 747.75 174.00   Q 746.55 177.63 743.51 177.55   A 1.05 1.04 -65.7 0 0 742.81 177.82   L 742.59 178.02   A 0.42 0.42 0.0 0 0 742.87 178.74   C 744.37 178.75 753.66 179.10 754.09 178.18   Q 754.33 177.69 753.79 177.77   Q 751.93 178.03 751.28 176.87   C 750.36 175.23 756.47 158.85 757.44 156.11   A 0.97 0.95 2.2 0 1 758.10 155.51   C 759.00 155.29 761.42 155.53 761.30 154.26   A 0.56 0.55 -2.2 0 0 760.74 153.75   L 751.38 153.75   A 0.63 0.62 0.0 0 0 750.75 154.37   L 750.74 154.76   A 0.54 0.54 0.0 0 0 751.18 155.29   L 752.96 155.63   A 0.63 0.62 -76.4 0 1 753.44 156.43"
       id="path144" />
    <path
       stroke="#808080"
       vector-effect="non-scaling-stroke"
       d="   M 805.47 156.15   L 799.89 173.80   A 0.54 0.54 0.0 0 1 798.89 173.88   L 788.79 154.16   A 0.81 0.81 0.0 0 0 788.05 153.71   L 782.45 153.85   A 0.64 0.63 52.9 0 0 782.28 155.09   L 784.40 155.75   A 0.55 0.54 -72.7 0 1 784.76 156.44   L 778.25 175.99   A 1.91 1.89 2.9 0 1 776.84 177.25   L 774.41 177.78   A 0.48 0.48 0.0 0 0 774.50 178.72   C 775.60 178.74 782.49 179.03 782.81 178.34   A 0.36 0.35 12.1 0 0 782.48 177.84   C 780.35 177.83 780.04 176.77 780.64 174.94   Q 783.28 166.90 785.81 158.92   A 0.41 0.41 0.0 0 1 786.57 158.87   C 788.50 162.81 795.43 178.60 799.19 179.46   A 0.77 0.77 0.0 0 0 800.09 178.95   Q 803.53 168.33 807.01 157.98   Q 808.00 155.02 810.81 154.88   A 0.38 0.37 75.3 0 0 811.12 154.34   C 810.60 153.26 804.46 154.04 803.24 154.18   Q 801.44 154.40 803.17 154.93   L 805.15 155.54   A 0.49 0.49 0.0 0 1 805.47 156.15"
       id="path146" />
    <path
       stroke="#808080"
       vector-effect="non-scaling-stroke"
       d="   M 832.41 176.10   L 835.15 167.60   A 0.93 0.91 -79.3 0 1 836.07 166.96   L 842.59 167.30   A 0.45 0.45 0.0 0 1 843.01 167.84   L 842.60 169.78   A 0.40 0.39 -89.5 0 0 843.06 170.25   L 843.38 170.19   A 0.80 0.80 0.0 0 0 843.98 169.67   L 846.40 162.54   A 0.33 0.33 0.0 0 0 846.26 162.15   L 845.98 161.98   A 0.52 0.51 -60.0 0 0 845.25 162.18   L 843.86 164.76   A 1.05 1.04 15.3 0 1 842.89 165.31   L 836.76 165.03   A 0.58 0.58 0.0 0 1 836.24 164.26   L 839.13 156.18   A 0.66 0.65 -79.6 0 1 839.74 155.75   L 847.73 155.75   A 0.66 0.66 0.0 0 1 848.37 156.24   C 848.55 156.89 848.26 159.38 848.65 159.57   A 0.64 0.64 0.0 0 0 849.52 159.24   L 851.59 154.46   A 0.51 0.51 0.0 0 0 851.12 153.75   L 833.25 153.75   A 0.50 0.50 0.0 0 0 832.75 154.25   L 832.75 154.53   A 0.48 0.48 0.0 0 0 833.02 154.96   L 834.65 155.78   A 0.69 0.69 0.0 0 1 835.00 156.60   Q 831.98 166.30 828.60 175.87   C 828.22 176.94 827.44 177.36 826.55 177.89   A 0.46 0.46 0.0 0 0 826.79 178.74   L 843.66 178.75   A 1.01 0.99 -78.3 0 0 844.60 178.12   L 846.56 173.38   A 0.65 0.64 -68.8 0 0 846.20 172.54   C 845.29 172.19 843.63 175.73 843.05 176.38   A 1.07 1.07 0.0 0 1 842.24 176.75   L 832.88 176.75   A 0.50 0.49 -81.0 0 1 832.41 176.10"
       id="path148" />
    <path
       stroke="#808080"
       vector-effect="non-scaling-stroke"
       d="   M 882.20 156.41   L 875.73 176.21   A 1.19 1.17 1.7 0 1 874.89 176.99   L 871.74 177.76   A 0.30 0.29 87.1 0 0 871.53 178.00   L 871.48 178.32   A 0.38 0.37 -86.0 0 0 871.85 178.75   L 881.42 178.75   A 1.12 1.10 -64.6 0 0 882.13 178.49   L 882.45 178.21   Q 883.00 177.72 882.27 177.65   L 880.62 177.47   A 1.27 1.27 0.0 0 1 879.55 175.81   L 885.86 156.40   A 0.95 0.94 8.9 0 1 886.76 155.75   L 892.16 155.75   A 0.59 0.58 -86.9 0 1 892.74 156.40   L 892.43 159.09   A 0.58 0.56 8.0 0 0 892.91 159.71   L 893.16 159.75   A 0.69 0.69 0.0 0 0 893.92 159.28   L 895.54 154.36   A 0.47 0.46 -80.9 0 0 895.10 153.75   L 874.56 153.75   A 0.70 0.69 -79.6 0 0 873.91 154.20   C 873.58 155.12 871.86 159.19 872.74 159.80   A 0.54 0.54 0.0 0 0 873.53 159.61   L 875.30 156.31   A 1.09 1.09 0.0 0 1 876.25 155.75   L 881.72 155.75   A 0.51 0.50 -81.1 0 1 882.20 156.41"
       id="path150" />
    <path
       stroke="#808080"
       vector-effect="non-scaling-stroke"
       d="   M 672.19 159.73   A 0.31 0.31 0.0 0 0 671.64 159.60   L 664.72 168.33   A 0.31 0.31 0.0 0 0 664.98 168.83   L 673.41 168.41   A 0.31 0.31 0.0 0 0 673.70 168.04   L 672.19 159.73"
       id="path152" />
    <path
       stroke="#808080"
       vector-effect="non-scaling-stroke"
       d="   M 481.78 159.89   A 0.42 0.42 0.0 0 0 481.03 159.70   L 474.29 168.21   A 0.42 0.42 0.0 0 0 474.65 168.89   L 482.71 168.35   A 0.42 0.42 0.0 0 0 483.10 167.86   L 481.78 159.89"
       id="path154" />
    <path
       stroke="#808080"
       vector-effect="non-scaling-stroke"
       d="   M 714.73 156.16   L 712.26 163.17   A 0.52 0.52 0.0 0 0 712.65 163.85   Q 719.90 165.26 722.57 158.71   A 2.09 2.09 0.0 0 0 720.75 155.83   L 715.66 155.54   A 0.93 0.93 0.0 0 0 714.73 156.16"
       id="path156" />
    <path
       stroke="#808080"
       vector-effect="non-scaling-stroke"
       d="   M 711.36 166.33   L 708.06 176.17   A 0.45 0.45 0.0 0 0 708.39 176.76   Q 716.16 178.41 719.30 171.57   Q 720.31 169.36 719.11 166.96   A 1.15 1.15 0.0 0 0 718.21 166.33   L 712.44 165.65   A 1.01 1.01 0.0 0 0 711.36 166.33"
       id="path158" />
  </g>
  <g
     fill="#ffffff"
     id="g196"
     style="fill:#ffffff;fill-opacity:1">
    <path
       d="   M 119.37 119.45   A 0.80 0.79 12.8 0 1 120.08 120.57   Q 118.83 123.36 116.62 125.39   A 1.23 1.17 -65.3 0 1 115.81 125.71   Q 76.87 126.03 62.25 125.52   C 45.40 124.92 16.55 120.32 16.59 97.95   Q 16.60 93.71 19.13 86.84   Q 25.50 69.51 32.69 52.55   A 0.90 0.90 0.0 0 1 33.52 52.00   L 61.63 52.01   A 0.80 0.80 0.0 0 1 62.37 53.13   Q 54.32 71.76 47.66 90.83   Q 45.36 97.42 45.68 100.97   C 47.15 117.43 73.67 119.33 85.72 119.25   Q 102.26 119.13 119.37 119.45   Z"
       id="path162"
       style="fill:#ffffff;fill-opacity:1" />
    <path
       d="   M 169.27 118.66   A 0.42 0.42 0.0 0 0 169.66 119.19   L 177.51 119.41   A 0.64 0.63 -77.1 0 1 178.07 120.31   Q 176.73 123.24 174.35 125.44   A 1.17 1.15 23.6 0 1 173.57 125.74   Q 158.28 125.76 143.01 125.75   C 138.55 125.74 138.80 121.77 139.68 118.50   Q 147.73 88.53 159.02 59.66   A 1.00 1.00 0.0 0 0 158.12 58.29   L 152.48 58.13   A 1.22 1.22 0.0 0 1 151.60 56.10   L 154.86 52.44   A 1.31 1.29 -68.9 0 1 155.83 52.00   Q 170.79 52.02 185.73 51.98   C 188.81 51.97 191.39 53.11 189.98 56.71   Q 178.03 87.14 169.27 118.66   Z"
       id="path164"
       style="fill:#ffffff;fill-opacity:1" />
    <path
       d="   M 248.85 59.64   Q 236.20 91.65 227.67 125.01   A 1.02 1.02 0.0 0 1 226.68 125.77   L 199.47 125.71   A 1.31 1.31 0.0 0 1 198.21 124.08   Q 207.16 88.86 221.03 54.56   C 221.71 52.88 224.40 52.02 226.33 52.01   Q 249.85 51.98 273.64 52.01   A 0.95 0.94 25.5 0 1 274.24 53.69   L 269.02 57.90   A 1.58 1.55 25.1 0 1 268.03 58.25   L 250.89 58.25   A 2.20 2.19 -79.2 0 0 248.85 59.64   Z"
       id="path166"
       style="fill:#ffffff;fill-opacity:1" />
    <path
       d="   M 314.18 52.59   A 0.94 0.93 10.5 0 1 315.05 52.00   L 343.03 52.00   A 0.85 0.85 0.0 0 1 343.82 53.17   Q 330.25 86.95 320.83 122.02   Q 319.91 125.45 315.43 125.51   Q 291.97 125.78 268.36 125.74   A 2.53 2.51 -20.6 0 1 266.51 124.91   C 265.89 124.21 269.80 120.33 270.45 119.75   A 1.48 1.45 -65.4 0 1 271.37 119.40   L 290.03 119.19   A 1.41 1.38 -65.2 0 0 290.90 118.86   C 292.71 117.31 292.88 115.49 293.49 113.33   Q 302.13 82.69 314.18 52.59   Z"
       id="path168"
       style="fill:#ffffff;fill-opacity:1" />
    <path
       d="   M 363.23 52.79   A 1.27 1.26 11.1 0 1 364.40 52.01   Q 403.95 51.99 444.00 52.01   C 451.16 52.01 458.84 55.27 460.76 62.69   Q 461.63 66.03 460.22 72.65   C 455.77 93.47 447.15 125.37 419.94 125.54   Q 380.53 125.80 340.77 125.72   A 1.16 1.15 7.2 0 1 339.65 124.28   Q 349.06 87.74 363.23 52.79   Z   M 390.29 59.82   Q 378.91 88.88 370.77 119.00   A 0.29 0.29 0.0 0 0 371.05 119.37   Q 384.47 119.18 397.88 119.25   C 406.93 119.30 413.86 118.42 417.72 110.24   Q 426.73 91.19 432.06 67.43   C 433.57 60.68 430.07 58.29 423.63 58.27   Q 407.41 58.22 391.17 58.27   A 0.66 0.65 11.6 0 0 390.57 58.66   C 390.44 58.93 390.38 59.60 390.29 59.82   Z"
       id="path170"
       style="fill:#ffffff;fill-opacity:1" />
    <path
       d="   M 531.25 81.51   C 542.32 81.54 549.48 58.22 541.35 58.25   Q 528.67 58.30 515.96 58.18   A 0.80 0.80 0.0 0 0 515.22 58.68   Q 502.33 91.20 493.56 125.08   A 0.91 0.90 6.9 0 1 492.68 125.76   L 465.29 125.71   A 1.21 1.20 7.1 0 1 464.12 124.21   Q 473.54 87.47 487.87 52.37   A 0.59 0.58 11.6 0 1 488.41 52.01   Q 523.88 51.99 559.50 51.97   C 580.80 51.95 574.87 72.54 566.36 82.20   A 0.36 0.36 0.0 0 0 566.49 82.77   C 574.48 86.18 578.81 90.35 576.85 99.77   C 574.76 109.81 569.43 121.48 559.14 124.65   Q 555.67 125.72 546.14 125.73   Q 532.64 125.75 519.15 125.79   C 515.40 125.80 512.08 124.53 511.61 120.63   A 1.23 1.23 0.0 0 1 512.84 119.26   C 524.21 119.42 538.77 120.42 544.22 108.24   C 547.75 100.34 551.77 88.61 538.49 88.14   Q 527.22 87.74 515.93 87.72   A 0.95 0.95 0.0 0 1 515.10 87.23   L 513.02 83.33   A 1.23 1.23 0.0 0 1 514.10 81.52   Q 522.71 81.48 531.25 81.51   Z"
       id="path172"
       style="fill:#ffffff;fill-opacity:1" />
    <path
       d="   M 628.91 76.75   L 679.97 76.75   A 0.84 0.84 0.0 0 1 680.71 77.98   C 679.21 80.82 677.14 83.00 673.61 83.00   Q 650.29 83.00 626.90 83.00   A 1.04 1.04 0.0 0 0 625.92 83.70   C 623.44 90.95 619.21 101.35 619.91 108.05   C 620.99 118.32 629.94 119.25 639.05 119.24   Q 653.21 119.24 667.74 119.28   Q 670.34 119.28 668.77 121.36   L 665.78 125.32   A 1.08 1.07 18.2 0 1 664.92 125.75   Q 642.32 125.76 619.75 125.82   C 598.26 125.87 585.07 117.00 592.92 93.65   Q 599.91 72.82 607.82 52.34   A 0.53 0.52 -79.4 0 1 608.31 52.00   L 692.85 52.00   A 0.75 0.75 0.0 0 1 693.37 53.29   L 688.61 57.94   A 1.11 1.10 22.7 0 1 687.84 58.25   L 635.87 58.25   A 0.83 0.83 0.0 0 0 635.09 58.79   L 628.50 76.16   A 0.44 0.44 0.0 0 0 628.91 76.75   Z"
       id="path174"
       style="fill:#ffffff;fill-opacity:1" />
    <path
       d="   M 790.97 118.52   C 793.39 119.84 797.00 119.10 799.77 119.48   A 0.81 0.80 21.5 0 1 800.32 120.74   C 798.34 123.55 796.20 125.68 792.46 125.74   Q 773.29 126.06 767.77 125.51   C 762.57 125.00 759.78 121.69 757.75 116.76   Q 751.72 102.13 745.74 87.49   C 744.34 84.07 745.33 81.36 749.30 81.50   C 754.94 81.71 768.08 82.67 772.78 80.10   C 778.74 76.84 782.11 69.84 782.25 63.24   C 782.33 59.55 779.88 58.26 776.42 58.25   Q 760.48 58.24 743.36 58.26   A 0.88 0.86 -79.1 0 0 742.55 58.82   Q 729.86 91.08 721.18 124.66   A 1.45 1.44 -82.8 0 1 719.78 125.75   L 692.59 125.75   A 1.14 1.13 7.3 0 1 691.49 124.33   Q 701.02 87.65 715.21 52.51   A 0.79 0.79 0.0 0 1 715.94 52.02   Q 754.18 51.97 792.59 52.02   C 804.86 52.04 814.95 53.99 811.01 69.47   Q 807.65 82.63 796.01 86.79   C 791.17 88.52 784.06 87.70 778.59 88.11   A 0.50 0.50 0.0 0 0 778.17 88.80   L 790.23 117.71   A 1.59 1.58 2.8 0 0 790.97 118.52   Z"
       id="path176"
       style="fill:#ffffff;fill-opacity:1" />
    <path
       d="   M 836.19 57.69   C 837.75 54.03 840.77 52.10 844.75 52.09   Q 889.01 51.99 932.99 52.01   A 0.87 0.87 0.0 0 1 933.60 53.50   L 929.19 57.82   A 1.51 1.49 -66.9 0 1 928.14 58.25   Q 898.43 58.25 868.75 58.25   C 867.62 58.25 866.38 59.56 865.92 60.70   Q 854.90 88.00 847.45 116.58   A 1.05 1.05 0.0 0 0 848.05 117.81   Q 849.59 118.47 851.50 118.67   Q 865.88 120.12 881.69 118.42   C 884.13 118.15 885.30 117.43 886.32 115.08   Q 890.46 105.56 893.81 95.62   A 1.42 1.41 9.4 0 0 892.47 93.76   L 882.73 93.75   A 1.04 1.03 -16.7 0 1 881.90 93.31   L 879.05 89.25   A 1.11 1.11 0.0 0 1 879.96 87.50   L 927.69 87.51   A 1.15 1.11 -5.5 0 1 928.81 88.40   Q 928.83 88.51 928.62 89.16   Q 924.35 102.53 918.97 115.48   C 917.24 119.64 913.74 123.02 909.51 123.50   C 880.73 126.75 850.80 126.07 823.06 123.42   C 818.54 122.99 815.86 119.43 816.96 114.95   Q 824.03 86.15 836.19 57.69   Z"
       id="path178"
       style="fill:#ffffff;fill-opacity:1" />
    <path
       d="   M 978.64 76.75   L 1016.85 76.75   A 1.15 1.15 0.0 0 1 1017.58 78.78   L 1012.84 82.71   A 1.26 1.24 -64.5 0 1 1012.04 83.00   L 976.24 83.00   A 0.64 0.63 -80.3 0 0 975.64 83.43   Q 968.75 103.93 963.31 124.86   A 1.20 1.20 0.0 0 1 962.15 125.76   L 935.23 125.73   A 1.44 1.44 0.0 0 1 933.84 123.93   Q 943.26 87.47 957.40 52.58   A 0.94 0.93 -78.6 0 1 958.26 52.00   L 985.62 52.00   A 1.20 1.20 0.0 0 1 986.74 53.63   L 978.19 76.10   A 0.48 0.48 0.0 0 0 978.64 76.75   Z"
       id="path180"
       style="fill:#ffffff;fill-opacity:1" />
    <path
       d="   M 1029.86 52.29   A 0.47 0.46 -78.6 0 1 1030.29 52.00   L 1058.05 52.00   A 0.69 0.69 0.0 0 1 1058.73 52.57   Q 1058.98 53.95 1058.33 55.57   Q 1044.77 89.58 1035.50 125.07   A 0.90 0.89 7.0 0 1 1034.63 125.74   C 1025.68 125.75 1015.52 126.55 1006.56 125.42   A 0.69 0.69 0.0 0 1 1005.98 124.56   Q 1015.42 87.60 1029.86 52.29   Z"
       id="path182"
       style="fill:#ffffff;fill-opacity:1" />
    <path
       d="   M 271.25 61.27   C 275.81 61.31 279.20 63.06 280.05 67.65   Q 283.95 88.84 288.07 109.99   Q 288.64 112.92 288.62 114.86   A 0.53 0.53 0.0 0 1 288.11 115.38   Q 278.36 115.73 268.68 115.61   C 263.75 115.56 260.81 113.90 259.96 109.01   Q 255.94 85.76 252.05 62.92   A 1.40 1.39 -5.3 0 1 253.41 61.29   Q 262.40 61.20 271.25 61.27   Z"
       id="path184"
       style="fill:#ffffff;fill-opacity:1" />
    <path
       d="m 945.7,154.34 -1.1,-0.46 c -0.33722,-0.14098 -0.72324,0.0336 -0.84,0.38 l -11.06,33.03 c -0.14204,0.42404 -0.54465,0.70989 -1,0.71 H 11.52 c -0.350964,-0.003 -0.598008,-0.34605 -0.49,-0.68 l 11.23,-34.55 c 0.09981,-0.30961 0.390577,-0.5196 0.72,-0.52 h 103.3 c 0.25897,0.002 0.44175,0.25109 0.36,0.49 l -7.1,21.43 c -0.13789,0.41591 0.094,0.86158 0.51,0.98 l 1.31,0.38 c 0.34249,0.10028 0.7013,-0.0858 0.81,-0.42 l 10.7,-32.09 c 0.10243,-0.30353 0.38369,-0.50845 0.7,-0.51 307.74,-0.01 615.24,0.01 923.24,-0.01 0.2379,-5.6e-4 0.405,0.23742 0.33,0.47 l -11.71,35.11 c -0.082,0.2562 -0.3208,0.42993 -0.59,0.43 L 939.2,178.5 c -0.26451,0.001 -0.45159,-0.26161 -0.37,-0.52 l 7.42,-22.44 c 0.16438,-0.48259 -0.0771,-1.0095 -0.55,-1.2 z m -287.04,22.18 4.15,-5.56 c 0.21359,-0.28952 0.55511,-0.46027 0.92,-0.46 h 9.19 c 0.25397,2.3e-4 0.47208,0.18059 0.52,0.43 l 0.91,4.76 c 0.0621,0.32504 -0.0434,0.65691 -0.28,0.88 -0.88667,0.82 -1.94333,1.11667 -3.17,0.89 -0.29161,-0.0541 -0.56935,0.14621 -0.61,0.44 l -0.04,0.32 c -0.0364,0.28261 0.18506,0.53233 0.47,0.53 h 9.08 c 0.18031,-1.3e-4 0.35403,-0.0639 0.49,-0.18 l 0.22,-0.2 c 0.22353,-0.19421 0.15759,-0.5569 -0.12,-0.66 l -1.03,-0.41 c -0.32901,-0.12683 -0.58535,-0.39415 -0.7,-0.73 -0.97333,-2.86 -1.40667,-5.79667 -1.3,-8.81 0.02,-0.42 -0.0867,-0.75667 -0.32,-1.01 -0.2125,-0.23182 -0.33335,-0.5304 -0.34,-0.84 -0.0867,-3.82667 -0.52,-7.63333 -1.3,-11.42 -0.28,-1.35333 -0.84333,-1.48333 -1.69,-0.39 -5.87333,7.58 -11.63667,14.86333 -17.29,21.85 -0.99,1.23 -2.32,1.51 -3.77,1.76 -0.28988,0.0498 -0.47768,0.33377 -0.41,0.62 0.16,0.65 6.16,0.44 8.43,0.38 0.26,-0.01 0.68,-0.3 0.74,-0.5 0.0969,-0.3099 -0.11668,-0.63022 -0.44,-0.66 l -1.93,-0.18 c -0.64,-0.06 -0.76667,-0.34333 -0.38,-0.85 z M 431.73,157.73 c -2.86,3.07 -3.64,8.07 1.63,9.18 2.93333,0.61333 4.98,1.11 6.14,1.49 0.30922,0.0964 0.57298,0.30667 0.74,0.59 0.76667,1.26 0.80333,2.45333 0.11,3.58 -3,4.84667 -7.31667,6.16333 -12.95,3.95 -0.2908,-0.11099 -0.47103,-0.40591 -0.44,-0.72 l 0.3,-3.05 c 0.0183,-0.13301 -0.0858,-0.25125 -0.22,-0.25 h -0.36 c -0.35353,-0.005 -0.67066,0.21146 -0.79,0.54 l -1.66,4.56 c -0.11851,0.32634 0.0589,0.68564 0.39,0.79 7.68667,2.4 13.91,0.52667 18.67,-5.62 1.88667,-2.44 1.90333,-4.79667 0.05,-7.07 -0.20855,-0.24745 -0.48765,-0.42537 -0.8,-0.51 -2.67,-0.67 -11.51,-0.84 -8.94,-5.63 2.02,-3.76 5.21667,-5.08 9.59,-3.96 1.86667,0.48 2.23667,1.61333 1.11,3.4 -0.16292,0.25893 -0.003,0.59959 0.3,0.64 l 0.62,0.1 c 0.30923,0.0484 0.60995,-0.12698 0.72,-0.42 l 1.58,-4 c 0.0975,-0.24575 -0.0176,-0.52453 -0.26,-0.63 -6.02,-2.62667 -11.19667,-1.61333 -15.53,3.04 z m 36.84,19.55 c -0.44607,-0.0779 -0.64843,-0.6029 -0.37,-0.96 l 4.13,-5.4 c 0.20246,-0.26474 0.51672,-0.42002 0.85,-0.42 h 9.48 c 0.36788,-1.6e-4 0.66918,0.29228 0.68,0.66 l 0.16,5.47 c 0.007,0.32271 -0.23468,0.59904 -0.56,0.64 l -2.97,0.36 c -0.28257,0.034 -0.45906,0.32319 -0.36,0.59 0.32,0.82 6.96,0.56 9.9,0.5 0.15,-0.01 0.51,-0.29 0.56,-0.4 0.10778,-0.26799 -0.0283,-0.57192 -0.3,-0.67 l -1.4,-0.5 c -0.32498,-0.11748 -0.55673,-0.40716 -0.6,-0.75 -0.6,-4.69333 -1.13333,-9.4 -1.6,-14.12 -0.28667,-2.87333 -0.73,-5.57333 -1.33,-8.1 -0.16142,-0.65306 -0.99706,-0.84271 -1.41,-0.32 l -17.78,22.49 c -0.20167,0.254 -0.47317,0.44196 -0.78,0.54 l -3.23,1 c -0.40983,0.13436 -0.33063,0.73623 0.1,0.76 1.49,0.06 8.93,0.37 9.3,-0.23 0.18184,-0.29401 0.0102,-0.6788 -0.33,-0.74 z m 145.62,-15.84 c -2.63,3.13 -4.28,8.3 -2.75,12.29 3.09,8.04 21.56,5.79 21.22,2.32 -0.0263,-0.30884 -0.29494,-0.54227 -0.61,-0.53 -1.1,0.03 -1.7,0.74 -2.66,1.01 -20.73,5.64 -16.54,-20.05 0.12,-21.29 2.41333,-0.18 4.62333,0.37667 6.63,1.67 0.24624,0.1625 0.34949,0.47226 0.25,0.75 l -0.76,2.05 c -0.17333,0.47333 -0.0133,0.66333 0.48,0.57 l 0.4,-0.07 c 0.35145,-0.0696 0.64627,-0.30473 0.79,-0.63 l 1.88,-4.24 c 0.0948,-0.20723 -0.0129,-0.45069 -0.23,-0.52 -10,-3.32 -18.25333,-1.11333 -24.76,6.62 z M 175.85,175.7 c -0.91379,-0.38898 -1.39706,-1.39829 -1.13,-2.36 1.48,-5.3 3.05667,-10.54667 4.73,-15.74 0.95,-2.96 4.59,-1.72 4.75,-3.29 0.0298,-0.28951 -0.20306,-0.54094 -0.5,-0.54 l -9.62,0.06 c -0.32033,0 -0.58,0.26415 -0.58,0.59 v 0.27 c -0.001,0.27261 0.18731,0.50732 0.45,0.56 l 2.01,0.38 c 0.32019,0.0607 0.51024,0.39331 0.4,0.7 -3.16,8.71333 -4.94333,14.35 -5.35,16.91 -0.41333,2.58667 0.44333,4.31333 2.57,5.18 5.84,2.39 15.3,0.47 18.12,-5.73 0.99333,-2.18 2.87,-7.66 5.63,-16.44 0.0863,-0.29738 0.32251,-0.52592 0.62,-0.6 0.71,-0.19 3.65,-0.41 3.49,-1.4 -0.0443,-0.28712 -0.29462,-0.49924 -0.59,-0.5 l -8.09,0.09 c -0.66475,-2.8e-4 -0.78189,0.94527 -0.14,1.13 l 2.32,0.62 c 0.24527,0.0633 0.38996,0.31654 0.32,0.56 -1.42,4.86667 -3.01667,9.69667 -4.79,14.49 -0.89372,2.42082 -2.43066,4.09876 -4.31394,5.10014 -2.96336,1.57567 -6.78425,1.4762 -10.30606,-0.0401 z m 45.9,-16.68 c 0.12333,-0.40763 0.68575,-0.44598 0.88,-0.06 3.16,6.51333 6.49333,12.88333 10,19.11 0.78667,1.39333 1.82667,1.72 3.12,0.98 0.28279,-0.16077 0.4939,-0.42555 0.59,-0.74 2.1,-6.72667 4.30333,-13.41667 6.61,-20.07 0.34,-0.98 0.73333,-1.75667 1.18,-2.33 0.18218,-0.23415 0.43776,-0.40571 0.73,-0.49 l 2.06,-0.6 c 0.58888,-0.10961 0.46636,-0.98606 -0.13,-0.93 h -7.4 c -0.94,0 -1.04,0.29 -0.3,0.87 0.56,0.43333 1.23,0.66 2.01,0.68 0.32013,0.0106 0.54027,0.32579 0.44,0.63 l -5.68,17.72 c -0.14167,0.45572 -0.7663,0.50671 -0.98,0.08 l -10,-19.54 c -0.14992,-0.28661 -0.43333,-0.47555 -0.75,-0.5 -1,-0.09 -6.01,-0.69 -5.94,0.94 0.0161,0.2819 0.25816,0.49707 0.54,0.48 0.81333,-0.0467 1.35667,0.20667 1.63,0.76 0.66,1.36 -5.12,16.99 -6,19.42 -0.64,1.78 -1.85,2.41 -3.65,2.09 -0.15766,-0.0247 -0.30924,0.0637 -0.36,0.21 l -0.12,0.33 c -0.10192,0.25692 0.0744,0.53903 0.35,0.56 1.16,0.09 7.78,0.46 8.38,-0.17 0.17789,-0.19237 0.0963,-0.5025 -0.15,-0.57 l -2.08,-0.61 c -0.38674,-0.11522 -0.60329,-0.52575 -0.48,-0.91 z m 47.26,18.29 c -0.49677,-0.0843 -0.80072,-0.59245 -0.64,-1.07 l 6.5,-19.86 c 0.11422,-0.3469 0.38017,-0.62024 0.72,-0.74 0.51,-0.18 3.48,-0.55 3.42,-1.26 -0.0267,-0.33579 -0.30868,-0.5913 -0.64,-0.58 l -9.71,0.2 c -1.62,0.0333 -1.67333,0.33333 -0.16,0.9 l 2.16,0.81 c 0.27039,0.10008 0.41876,0.38809 0.34,0.66 -1.79333,6.16 -3.77333,12.27 -5.94,18.33 -0.82,2.3 -2.14,3.19 -4.53,2.99 -0.15133,-0.0117 -0.28045,0.10822 -0.28,0.26 v 0.26 c 0,0.28167 0.22833,0.51 0.51,0.51 1.28,0.02 10.53,0.33 10.82,-0.4 0.10493,-0.27649 -0.0685,-0.58003 -0.36,-0.63 z m 37.69,-4.03 -0.48512,-5.82494 L 305.32,156.71 c -0.0489,-0.60234 0.37667,-1.13757 0.97,-1.22 l 2.49,-0.37 c 0.27825,-0.0401 0.4836,-0.28393 0.48,-0.57 l -0.01,-0.3 c -0.005,-0.27775 -0.23219,-0.50005 -0.51,-0.5 h -8.9 c -0.28221,0.001 -0.52037,0.20553 -0.56,0.48 l -0.04,0.28 c -0.0238,0.1436 0.0494,0.28579 0.18,0.35 1.14,0.54667 1.75,1.17667 1.83,1.89 0.43833,3.90186 0.8602,7.82018 1.26562,11.75496 0.34684,3.3663 0.68163,6.74465 1.00438,10.13504 0.0393,0.38385 0.40235,0.64918 0.78,0.57 1.9,-0.41 15.15,-19.15 17.33,-22 0.9,-1.19 2.35,-1.77 3.32,-3 0.20667,-0.27333 0.14,-0.41 -0.2,-0.41 l -7.48,0.07 c -0.50908,0.004 -0.63591,0.70919 -0.16,0.89 l 2.31,0.88 c 0.37362,0.14051 0.50844,0.59987 0.27,0.92 l -12.39,16.88 c -0.1891,0.23817 -0.57069,0.13642 -0.6,-0.16 z m 43.01,-8.82 2.92,-8.21 c 0.10951,-0.30113 0.39355,-0.50115 0.71,-0.5 h 7.91 c 0.38903,-1e-5 0.70128,0.31677 0.69,0.7 l -0.06,2.58 c -0.007,0.25093 0.13324,0.48444 0.36,0.6 l 0.26,0.13 c 0.17487,0.079 0.37863,0.002 0.45,-0.17 l 2.23,-5.28 c 0.11592,-0.26558 -0.0802,-0.56246 -0.37,-0.56 h -17.97 c -0.27898,0.001 -0.51595,0.20452 -0.56,0.48 l -0.04,0.29 c -0.0558,0.35002 0.17053,0.68512 0.52,0.77 l 1.42,0.34 c 0.34066,0.0819 0.53897,0.43702 0.43,0.77 -2.04667,6.44667 -4.18667,12.86667 -6.42,19.26 -0.43,1.25 -1.14,1.64 -2.2,2.24 -0.42682,0.21938 -0.25966,0.86523 0.22,0.85 l 16.76,-0.01 c 0.58071,-6.8e-4 1.10345,-0.35709 1.32,-0.9 l 1.87,-4.74 c 0.0626,-0.16957 5.7e-4,-0.35996 -0.15,-0.46 l -0.25,-0.15 c -0.24809,-0.15199 -0.57262,-0.0709 -0.72,0.18 l -2.22,3.55 c -0.17987,0.2914 -0.49756,0.46916 -0.84,0.47 l -9.67,0.09 c -0.33374,0.002 -0.57218,-0.32227 -0.47,-0.64 l 2.84,-8.43 c 0.13062,-0.38812 0.49471,-0.64702 0.9,-0.64 l 6.5,0.08 c 0.38828,0.001 0.66397,0.38212 0.55,0.76 l -0.5,1.65 c -0.10056,0.34703 0.15512,0.69295 0.51,0.69 h 0.33 c 0.22581,0.005 0.42923,-0.14103 0.5,-0.36 l 2.43,-7.27 c 0.0654,-0.1855 -0.009,-0.39328 -0.18,-0.5 l -0.25,-0.15 c -0.26338,-0.16231 -0.60921,-0.0655 -0.75,0.21 l -1.18,2.35 c -0.14651,0.28769 -0.44382,0.46916 -0.77,0.47 h -6.68 c -0.28133,0.004 -0.4785,-0.27645 -0.38,-0.54 z m 39.12,13.05 c -0.79452,-0.14391 -1.28797,-0.94925 -1.06,-1.73 1.87333,-6.26667 3.78,-12.02333 5.72,-17.27 0.5,-1.36 0.53,-2.66 2.32,-2.93 12.38,-1.9 6.33,10.56 -2.81,9.62 -0.4136,-0.0422 -0.71257,0.38648 -0.53,0.76 l 5.63,12.14 c 0.12432,0.27339 0.3843,0.46555 0.69,0.51 0.99,0.12 5.02,0.43 5.21,-0.22 0.0913,-0.27796 -0.0595,-0.57947 -0.34,-0.68 -2.21,-0.77 -4.26,-6.18 -6.25,-10.53 -0.1155,-0.25216 -0.008,-0.54832 0.24,-0.66 3.52,-1.61 7.04,-2.71 8.82,-6.51 2.32,-4.96 -3.13,-6.59 -6.72,-6.34 -3.88,0.27333 -7.75667,0.30333 -11.63,0.09 -0.29865,-0.0177 -0.55847,0.20249 -0.59,0.5 l -0.04,0.39 c -0.0466,0.40555 0.25299,0.76865 0.66,0.8 l 1.88,0.16 c 0.27944,0.0254 0.46405,0.3023 0.38,0.57 l -6.7,20.28 c -0.12391,0.38188 -0.44748,0.66308 -0.84,0.73 l -2.95,0.54 c -0.24867,0.0437 -0.39092,0.30856 -0.29,0.54 0.33,0.75 7.25,0.51 10.38,0.45 0.13,0 0.51,-0.28 0.55,-0.37 0.11649,-0.24497 -0.0328,-0.53351 -0.3,-0.58 z m 129.35,-1.4 6.48,-19.58 c 0.12633,-0.36604 0.41396,-0.65367 0.78,-0.78 l 3,-1.05 c 0.5683,-0.18763 0.41188,-1.02736 -0.19,-1.02 l -9.65,0.31 c -0.50667,0.02 -0.62667,0.24333 -0.36,0.67 0.41333,0.65333 1.02333,0.97333 1.83,0.96 0.4989,-0.007 0.86164,0.47158 0.72,0.95 -1.92,6.36667 -4.10333,12.87667 -6.55,19.53 -0.34,0.94 -1.12,1.39 -2.01,1.65 -0.14896,0.0473 -0.24198,0.19526 -0.22,0.35 l 0.04,0.27 c 0.0347,0.22033 0.22187,0.38202 0.44,0.38 h 17.52 c 0.33247,-5.6e-4 0.63158,-0.19734 0.76,-0.5 l 2.16,-5.09 c 0.11707,-0.27988 -0.0643,-0.59232 -0.36,-0.62 l -0.28,-0.03 c -0.30445,-0.0237 -0.59642,0.13203 -0.75,0.4 l -1.9,3.34 c -0.17391,0.30858 -0.50636,0.49965 -0.87,0.5 h -10.13 c -0.32955,-0.004 -0.56092,-0.32626 -0.46,-0.64 z m 201.4,-11.12 c -0.39499,-0.0129 -0.45379,-0.57571 -0.07,-0.67 4.12667,-0.84667 6.51333,-3.31667 7.16,-7.41 0.0569,-0.35055 -0.0338,-0.70613 -0.25,-0.98 -2.55,-3.27 -11.13,-2.25 -17.13,-2.15 -0.33933,0.007 -0.64606,0.19473 -0.8,0.49 l -0.14,0.28 c -0.15983,0.30423 0.0142,0.67708 0.35,0.75 l 1.55,0.33 c 0.34583,0.0764 0.55271,0.43501 0.45,0.78 -1.91333,6.41333 -4,12.77667 -6.26,19.09 -0.47,1.29 -1.26,1.98 -2.46,2.45 -0.37379,0.1569 -0.27498,0.71178 0.13,0.73 7.81,0.22 15.47,1.34 20.7,-6.02 1.16,-1.64 1.06,-3.44 0.93,-5.36 -0.0257,-0.35239 -0.18735,-0.6792 -0.45,-0.91 -1.02667,-0.92667 -2.26333,-1.39333 -3.71,-1.4 z m 33.86,-8.56 c -1.85333,5.87333 -3.75,11.73 -5.69,17.57 -0.8,2.42 -2.21333,3.60333 -4.24,3.55 -0.25788,-6e-5 -0.5073,0.0961 -0.7,0.27 l -0.22,0.2 c -0.26434,0.25861 -0.0896,0.70793 0.28,0.72 1.5,0.01 10.79,0.36 11.22,-0.56 0.16,-0.32667 0.06,-0.46333 -0.3,-0.41 -1.24,0.17333 -2.07667,-0.12667 -2.51,-0.9 -0.92,-1.64 5.19,-18.02 6.16,-20.76 0.10585,-0.29419 0.35256,-0.51847 0.66,-0.6 0.9,-0.22 3.32,0.02 3.2,-1.25 -0.021,-0.28831 -0.26568,-0.51114 -0.56,-0.51 h -9.36 c -0.34794,0 -0.63,0.27758 -0.63,0.62 l -0.01,0.39 c 3.2e-4,0.25942 0.18506,0.48196 0.44,0.53 l 1.78,0.34 c 0.36454,0.0659 0.58879,0.43968 0.48,0.8 z m 52.03,-0.28 -5.58,17.65 c -0.14403,0.4663 -0.78367,0.51748 -1,0.08 l -10.1,-19.72 c -0.13903,-0.28035 -0.42712,-0.45554 -0.74,-0.45 l -5.6,0.14 c -0.71177,0.0131 -0.84897,1.01384 -0.17,1.24 l 2.12,0.66 c 0.2902,0.0851 0.45254,0.39622 0.36,0.69 l -6.51,19.55 c -0.21017,0.63829 -0.74691,1.11794 -1.41,1.26 l -2.43,0.53 c -0.51318,0.14566 -0.44149,0.89436 0.09,0.94 1.1,0.02 7.99,0.31 8.31,-0.38 0.10959,-0.23205 -0.0667,-0.49923 -0.33,-0.5 -2.13,-0.01 -2.44,-1.07 -1.84,-2.9 1.76,-5.36 3.48333,-10.7 5.17,-16.02 0.11438,-0.3524 0.60044,-0.38437 0.76,-0.05 1.93,3.94 8.86,19.73 12.62,20.59 0.38653,0.0868 0.77587,-0.13379 0.9,-0.51 2.29333,-7.08 4.6,-14.07 6.92,-20.97 0.66,-1.97333 1.92667,-3.00667 3.8,-3.1 0.26294,-0.0136 0.42501,-0.29587 0.31,-0.54 -0.52,-1.08 -6.66,-0.3 -7.88,-0.16 -1.2,0.14667 -1.22333,0.39667 -0.07,0.75 l 1.98,0.61 c 0.25571,0.0814 0.39836,0.35335 0.32,0.61 z m 26.94,19.95 2.74,-8.5 c 0.13091,-0.40017 0.50834,-0.66273 0.92,-0.64 l 6.52,0.34 c 0.27615,0.0128 0.47558,0.2692 0.42,0.54 l -0.41,1.94 c -0.0545,0.2803 0.18692,0.52693 0.46,0.47 l 0.32,-0.06 c 0.27797,-0.0548 0.50619,-0.25265 0.6,-0.52 l 2.42,-7.13 c 0.0509,-0.14675 -0.007,-0.30915 -0.14,-0.39 l -0.28,-0.17 c -0.25092,-0.16035 -0.58757,-0.0681 -0.73,0.2 l -1.39,2.58 c -0.18854,0.35392 -0.56591,0.56789 -0.97,0.55 l -6.13,-0.28 c -0.38701,-0.0186 -0.64737,-0.40407 -0.52,-0.77 l 2.89,-8.08 c 0.0958,-0.25782 0.33887,-0.42918 0.61,-0.43 h 7.99 c 0.29988,-0.001 0.56276,0.20024 0.64,0.49 0.18,0.65 -0.11,3.14 0.28,3.33 0.33095,0.1604 0.72868,0.01 0.87,-0.33 l 2.07,-4.78 c 0.14356,-0.33676 -0.10392,-0.71061 -0.47,-0.71 h -17.87 c -0.27614,0 -0.5,0.22386 -0.5,0.5 v 0.28 c 6.2e-4,0.1831 0.10535,0.3499 0.27,0.43 l 1.63,0.82 c 0.3013,0.15115 0.44929,0.49787 0.35,0.82 -2.01333,6.46667 -4.14667,12.89 -6.4,19.27 -0.38,1.07 -1.16,1.49 -2.05,2.02 -0.39007,0.24393 -0.22004,0.8461 0.24,0.85 l 16.87,0.01 c 0.40953,0.007 0.78312,-0.2433 0.94,-0.63 l 1.96,-4.74 c 0.13166,-0.33496 -0.0297,-0.71154 -0.36,-0.84 -0.91,-0.35 -2.57,3.19 -3.15,3.84 -0.20342,0.23517 -0.49907,0.37022 -0.81,0.37 h -9.36 c -0.33396,0.004 -0.57242,-0.32531 -0.47,-0.65 z m 49.79,-19.69 -6.47,19.8 c -0.12398,0.38537 -0.44159,0.6803 -0.84,0.78 l -3.15,0.77 c -0.10951,0.0305 -0.19158,0.12423 -0.21,0.24 l -0.05,0.32 c -0.0306,0.22967 0.14436,0.43297 0.37,0.43 h 9.57 c 0.2583,-3.7e-4 0.50955,-0.0924 0.71,-0.26 l 0.32,-0.28 c 0.36667,-0.32667 0.30667,-0.51333 -0.18,-0.56 l -1.65,-0.18 c -0.80368,-0.0867 -1.3229,-0.89224 -1.07,-1.66 l 6.31,-19.41 c 0.12564,-0.38712 0.48888,-0.64946 0.9,-0.65 h 5.4 c 0.34534,-0.003 0.61578,0.30056 0.58,0.65 l -0.31,2.69 c -0.0346,0.29555 0.17626,0.56786 0.48,0.62 l 0.25,0.04 c 0.33427,0.0507 0.65602,-0.1483 0.76,-0.47 l 1.62,-4.92 c 0.0953,-0.30447 -0.12743,-0.61331 -0.44,-0.61 h -20.54 c -0.28725,-0.001 -0.54612,0.17802 -0.65,0.45 -0.33,0.92 -2.05,4.99 -1.17,5.6 0.26661,0.18857 0.63829,0.0992 0.79,-0.19 l 1.77,-3.3 c 0.19192,-0.3449 0.5553,-0.5591 0.95,-0.56 h 5.47 c 0.33919,-0.004 0.58195,0.32971 0.48,0.66 z"
       id="path186"
       sodipodi:nodetypes="csccccccccccccccccccccccccccccccccccccccccccccccccccccccccccccccccccccccccccccccccccccccccccccccccccccccccccccccccccccccccccccsccccccccccccccccscccccccccccscccccccccccccccccccccccccccccccccscccccccccccccccccscccccccccccccccccccccccccccccccccccccccccccccccccccccccccccccccccccccccccccccccccccccccccccccccccccccccccccccccccccccccccccccccccccccccccccscccccccccccccccccccccccccccccccccccccccccccccccccccccccccsscccccccccccccccccccccccccccccccccccccccccccccc"
       style="fill:#ffffff;fill-opacity:1;stroke:none;stroke-opacity:1;stroke-width:1;stroke-dasharray:none" />
    <path
       d="   M 714.73 156.16   A 0.93 0.93 0.0 0 1 715.66 155.54   L 720.75 155.83   A 2.09 2.09 0.0 0 1 722.57 158.71   Q 719.90 165.26 712.65 163.85   A 0.52 0.52 0.0 0 1 712.26 163.17   L 714.73 156.16   Z"
       id="path188"
       style="fill:#ffffff;fill-opacity:1" />
    <path
       d="   M 672.19 159.73   L 673.70 168.04   A 0.31 0.31 0.0 0 1 673.41 168.41   L 664.98 168.83   A 0.31 0.31 0.0 0 1 664.72 168.33   L 671.64 159.60   A 0.31 0.31 0.0 0 1 672.19 159.73   Z"
       id="path190"
       style="fill:#ffffff;fill-opacity:1" />
    <path
       d="   M 481.78 159.89   L 483.10 167.86   A 0.42 0.42 0.0 0 1 482.71 168.35   L 474.65 168.89   A 0.42 0.42 0.0 0 1 474.29 168.21   L 481.03 159.70   A 0.42 0.42 0.0 0 1 481.78 159.89   Z"
       id="path192"
       style="fill:#ffffff;fill-opacity:1" />
    <path
       d="   M 712.44 165.65   L 718.21 166.33   A 1.15 1.15 0.0 0 1 719.11 166.96   Q 720.31 169.36 719.30 171.57   Q 716.16 178.41 708.39 176.76   A 0.45 0.45 0.0 0 1 708.06 176.17   L 711.36 166.33   A 1.01 1.01 0.0 0 1 712.44 165.65   Z"
       id="path194"
       style="fill:#ffffff;fill-opacity:1" />
  </g>
</svg>
