<?xml version="1.0" encoding="UTF-8" standalone="no"?>
<!-- Created with Inkscape (http://www.inkscape.org/) -->

<svg
   width="135.73125mm"
   height="35.548527mm"
   viewBox="0 0 135.73125 35.548526"
   version="1.1"
   id="svg4515"
   inkscape:version="1.2.2 (732a01da63, 2022-12-09)"
   sodipodi:docname="iortcw.svg"
   inkscape:export-filename="ecwolf.svg"
   inkscape:export-xdpi="96"
   inkscape:export-ydpi="96"
   xml:space="preserve"
   xmlns:inkscape="http://www.inkscape.org/namespaces/inkscape"
   xmlns:sodipodi="http://sodipodi.sourceforge.net/DTD/sodipodi-0.dtd"
   xmlns="http://www.w3.org/2000/svg"
   xmlns:svg="http://www.w3.org/2000/svg"
   xmlns:rdf="http://www.w3.org/1999/02/22-rdf-syntax-ns#"
   xmlns:cc="http://creativecommons.org/ns#"
   xmlns:dc="http://purl.org/dc/elements/1.1/"><defs
     id="defs4509"><inkscape:perspective
       sodipodi:type="inkscape:persp3d"
       inkscape:vp_x="0 : 148.49999 : 1"
       inkscape:vp_y="0 : 999.99996 : 0"
       inkscape:vp_z="210.00001 : 148.49999 : 1"
       inkscape:persp3d-origin="105 : 98.999996 : 1"
       id="perspective5098" /></defs><sodipodi:namedview
     id="base"
     pagecolor="#ffffff"
     bordercolor="#666666"
     borderopacity="1.0"
     inkscape:pageopacity="0.0"
     inkscape:pageshadow="2"
     inkscape:zoom="1.050338"
     inkscape:cx="199.93564"
     inkscape:cy="-62.836916"
     inkscape:document-units="mm"
     inkscape:current-layer="layer1"
     showgrid="false"
     inkscape:pagecheckerboard="true"
     inkscape:window-width="1366"
     inkscape:window-height="705"
     inkscape:window-x="-8"
     inkscape:window-y="-8"
     inkscape:window-maximized="1"
     inkscape:showpageshadow="2"
     inkscape:deskcolor="#d1d1d1" /><metadata
     id="metadata4512"><rdf:RDF><cc:Work
         rdf:about=""><dc:format>image/svg+xml</dc:format><dc:type
           rdf:resource="http://purl.org/dc/dcmitype/StillImage" /></cc:Work></rdf:RDF></metadata><g
     inkscape:label="Layer 1"
     inkscape:groupmode="layer"
     id="layer1"
     transform="translate(-41.497202,-61.321965)"><text
       xml:space="preserve"
       style="font-style:normal;font-variant:normal;font-weight:normal;font-stretch:normal;font-size:16.9333px;line-height:1.25;font-family:'Segoe UI';-inkscape-font-specification:'Segoe UI';letter-spacing:0px;word-spacing:0px;fill:#000000;fill-opacity:1;stroke:none;stroke-width:0.264583"
       x="49.712536"
       y="18.254696"
       id="text5080" /><g
       style="font-style:normal;font-variant:normal;font-weight:normal;font-stretch:normal;font-size:50.79999924px;line-height:1.25;font-family:Impact;-inkscape-font-specification:Impact;letter-spacing:0px;word-spacing:0px;fill:#ffffff;fill-opacity:1;stroke:none;stroke-width:0.26458332"
       id="text5147" /><g
       aria-label="ยง"
       id="text407"
       style="font-size:28.9277px;font-family:Wolfenstein;-inkscape-font-specification:Wolfenstein;fill:#ffffff;stroke-width:0.264583"><path
         d="m 74.964416,65.75759 h 4.628432 v 0 1.446385 l -0.867831,0.578554 0.867831,0.578554 v 0.867831 l -2.024939,1.735662 v 0 -2.89277 h -0.867831 v 1.446385 0.289277 H 74.675139 V 69.518191 65.75759 Z m 5.206986,0 h 4.049878 0.289277 v 0.578554 0.289277 h -2.314216 v 0.578554 h 2.314216 v 0.289277 0.578554 H 84.22128 82.196341 v 0.867831 h 2.024939 0.289277 v 0.578554 0.289277 H 80.171402 V 69.518191 65.75759 Z m 5.206986,0 h 4.628432 v 0 0.578554 0.289277 h -1.446385 v 2.89277 l -2.024939,1.446385 v 0 -4.339155 H 85.089111 V 66.336144 65.75759 Z m 5.496263,0 h 1.446385 0.289277 v 3.182047 h 0.867831 v -3.182047 0 h 1.735662 0.289277 v 3.760601 0.289277 H 90.585374 V 69.518191 65.75759 Z m 5.496263,0 h 4.628436 v 0 1.446385 l -0.86783,0.578554 0.86783,0.578554 v 0.867831 l -2.024943,1.735662 v 0 -2.89277 h -0.867831 v 1.446385 0.289277 H 96.081637 V 69.518191 65.75759 Z m 5.206986,0 h 2.02494 q 0.86783,0.867831 0.86783,0.867831 h 0.28928 v -0.867831 0 h 2.02494 v 0 3.471324 l -2.02494,1.735662 v 0 -3.182047 l -1.15711,-1.157108 v 2.89277 0.289277 H 101.5779 V 69.518191 65.75759 Z m 7.81048,0 h 4.33915 v 0 0.578554 0.289277 h -1.44638 v 2.89277 l -1.73566,1.446385 v 0 -4.339155 h -1.15711 -0.28928 V 65.75759 Z m 5.20699,0 h 4.62843 v 0 3.760601 0.289277 h -4.91771 V 69.518191 65.75759 Z m 7.5212,0 h 4.04988 0.28927 v 0.578554 0.289277 h -2.60349 v 2.314216 h 2.31422 0.28927 v 0.578554 0.289277 h -4.33915 V 69.518191 65.75759 Z m 5.20698,0 h 4.33916 v 0 3.471324 l -2.02494,1.735662 v 0 -2.89277 h -0.57855 v 1.446385 0.289277 h -2.02494 V 69.518191 65.75759 Z m 4.91771,0 h 4.62843 0.28928 v 0.578554 0.289277 h -2.89277 v 0.867831 h 2.60349 0.28928 v 2.024939 0.289277 h -4.91771 v -0.289277 -0.578554 0 h 2.89277 v -0.867831 h -2.89277 V 67.782529 65.75759 Z m 5.78554,0 h 4.33916 v 0 0.578554 0.289277 h -1.15711 v 2.89277 l -2.02494,1.446385 v -4.339155 h -1.15711 -0.28927 V 65.75759 Z m 4.91771,0 h 1.73566 0.28928 v 3.182047 h 1.73566 0.57856 v 0.578554 0.289277 h -4.33916 V 69.518191 65.75759 Z m 4.91771,0 h 4.04988 0.28928 v 0.578554 0.289277 h -2.31422 v 0.578554 h 2.31422 v 0.289277 0.578554 h -0.28928 -2.02494 v 0.867831 h 2.02494 0.28928 v 0.578554 0.289277 h -4.33916 V 69.518191 65.75759 Z m -71.162142,0.578554 v 1.157108 h 0.867831 v -1.157108 z m 21.406498,0 v 1.157108 h 0.867831 v -1.157108 z m 30.952644,0 v 1.157108 h 0.57855 v -1.157108 z m -12.72819,0.289277 v 2.314216 h 0.86783 v -2.314216 z m -13.30674,8.099756 h 3.7606 v 0 q 0,0 -2.02494,2.024939 h -1.73566 v 3.471324 h 3.7606 l -2.02494,2.314216 h -1.73566 v 7.521202 l -3.182052,2.89277 v 0 -10.413972 H 98.68513 V 82.246379 80.510717 80.22144 h 1.157108 v -2.314216 z m -4.917714,0 v 0 15.331681 l -3.182047,3.182047 V 77.907224 Z m 35.291794,0 v 0 5.496263 h 3.7606 l -2.31421,2.314216 h -1.44639 v 7.231925 l -3.18205,3.182047 v -2.603493 -7.810479 h -3.18204 l 2.31421,-2.314216 h 0.86783 v -2.603493 q 0.28928,-0.289277 3.18205,-2.89277 z m 12.14963,0 v 0 2.89277 l -2.89277,2.89277 v 0 -2.89277 z m -77.815509,4.049878 h 8.67831 v 0 10.124695 h 1.157108 v -7.231925 l 3.471324,-2.89277 v 0 10.124695 h 1.157108 V 78.775055 h 8.967587 v 0 l -2.314216,2.024939 h -3.182047 v 8.967587 0.289277 l -3.471324,2.89277 v -2.89277 h -1.157108 l -3.471324,2.89277 v 0 -2.89277 h -1.157108 l -3.182047,2.89277 v 0 -12.149634 H 70.046707 L 67.732491,78.775055 Z M 145.548,79.353609 v 0 10.703249 h -0.28927 -2.6035 v 0 -4.917709 -3.182047 z m -37.60601,0.867831 h 3.18205 v 0.289277 2.314216 l -4.04988,4.049878 v 1.446385 0.289277 h 4.04988 v 0 1.446385 0 h -5.49626 -1.73566 v 0 -5.496263 z m 5.78554,0 h 5.78554 v 0.289277 9.546141 h -0.28927 -2.6035 -0.28927 v -7.521202 h -1.15711 v 7.521202 l -3.18205,2.89277 v -5.78554 -5.206986 z m 24.58855,0 h 3.18205 v 0.289277 2.314216 l -4.04988,3.760601 v 2.024939 h 4.04988 v 0 1.446385 0 h -5.49627 q -1.73566,0 -1.73566,0 v -5.78554 z m 10.12469,0 h 6.07482 v 0.289277 9.546141 h -0.28928 -2.89277 -0.28927 V 86.00698 82.535656 h -1.15711 v 7.521202 l -3.18205,2.89277 v 0 -10.992526 z m -57.855396,0.289277 h 3.471324 v 0 6.653371 l -3.471324,2.89277 h -4.049878 v 0 -6.364094 z M 122.40584,80.22144 h 6.07482 v 0 l -2.31421,2.314216 h -2.31422 l 5.20699,4.917709 v 0.867831 l -1.73567,1.735662 h -6.94264 v 0 -0.578554 -0.867831 h 5.20698 l -5.20698,-4.628432 v -1.735662 z m -32.688297,2.603493 v 5.78554 l 1.157108,-0.867831 v -5.78554 z m 17.356617,-0.289277 v 1.446385 l 1.44639,-1.446385 z m 30.37409,0 v 1.446385 l 1.44638,-1.446385 z"
         id="path419" /></g></g></svg>
