<?xml version="1.0" encoding="UTF-8" standalone="no"?>
<!-- Generator: Adobe Illustrator 16.0.0, SVG Export Plug-In . SVG Version: 6.00 Build 0)  -->

<svg
   version="1.1"
   id="Layer_1"
   x="0px"
   y="0px"
   width="582.953px"
   height="182.285px"
   viewBox="0 0 582.953 182.285"
   enable-background="new 0 0 582.953 182.285"
   xml:space="preserve"
   sodipodi:docname="tvgames.svg"
   inkscape:version="1.2.2 (732a01da63, 2022-12-09)"
   xmlns:inkscape="http://www.inkscape.org/namespaces/inkscape"
   xmlns:sodipodi="http://sodipodi.sourceforge.net/DTD/sodipodi-0.dtd"
   xmlns="http://www.w3.org/2000/svg"
   xmlns:svg="http://www.w3.org/2000/svg"><defs
   id="defs17" /><sodipodi:namedview
   id="namedview15"
   pagecolor="#ffffff"
   bordercolor="#000000"
   borderopacity="0.25"
   inkscape:showpageshadow="2"
   inkscape:pageopacity="0.0"
   inkscape:pagecheckerboard="0"
   inkscape:deskcolor="#d1d1d1"
   showgrid="false"
   inkscape:zoom="2.0687774"
   inkscape:cx="487.00261"
   inkscape:cy="91.358306"
   inkscape:window-width="1366"
   inkscape:window-height="705"
   inkscape:window-x="-8"
   inkscape:window-y="-8"
   inkscape:window-maximized="1"
   inkscape:current-layer="Layer_1" />
<path
   d="M449.66,131.735c-29.451,0-53.394-23.943-53.394-53.354c0-29.43,23.942-53.373,53.394-53.373  c29.41,0,53.333,23.943,53.333,53.373v14.094h-74.177c4.521,6.651,12.178,11.053,20.844,11.053c5.428,0,12.988-0.019,17.349-3.257  l14.409,20.962C472.161,128.103,461.167,131.735,449.66,131.735 M428.816,64.269h41.647c-4.521-6.672-12.199-11.054-20.804-11.054  C440.994,53.215,433.336,57.597,428.816,64.269"
   id="path2"
   style="fill:#ffffff" />
<path
   d="M100.2,144.703c-9.416-5.192-22.433-5.369-36.22-5.586c-11.784-0.158-29.547-0.415-34.275-5.606  c-1.214-1.322-2.39-3.571-2.427-7.125c-0.04-5.131,3.068-8.921,6.444-11.527c9.75,10.363,23.528,16.877,38.835,16.877  c29.399,0,53.352-23.943,53.352-53.354c0-15.376-6.583-29.232-17.014-38.963l16.531-3.771l-6.542-20.903L84.341,26.371  c-3.78-0.868-7.728-1.341-11.784-1.341c-29.43,0-53.363,23.922-53.363,53.352c0,5.251,0.79,10.323,2.201,15.119  C11.17,98.751,1.34,108.247,0.155,123.998c-0.889,11.626,2.043,21.219,8.725,28.542c12.939,14.172,35.115,14.487,54.676,14.803  c7.639,0.099,18.129-1.362,22.758,1.916c6.691,4.756,5.606,13.026,5.606,13.026l23.686-0.198  C115.932,179.303,118.074,154.493,100.2,144.703 M72.557,53.215c13.866,0,25.157,11.271,25.157,25.167  c0,13.856-11.291,25.147-25.157,25.147c-13.886,0-25.147-11.291-25.147-25.147C47.41,64.485,58.67,53.215,72.557,53.215"
   id="path4"
   style="fill:#ffffff" />
<path
   d="M183.959,25.029c-29.43,0-53.363,23.922-53.363,53.333c0,29.43,23.934,53.373,53.363,53.373  c9.1,0,17.667-2.291,25.167-6.316v4.421h28.197V78.362C237.323,48.951,213.39,25.029,183.959,25.029 M183.959,103.528  c-13.865,0-25.166-11.291-25.166-25.166c0-13.858,11.301-25.147,25.166-25.147c13.868,0,25.167,11.29,25.167,25.147  C209.126,92.237,197.827,103.528,183.959,103.528"
   id="path6"
   style="fill:#ffffff" />
<path
   d="M379.233,37.523c-5.171-5.704-14.824-12.515-31.108-12.515c-13.976,0-23.172,4.994-28.896,9.969  c-5.607-4.994-14.627-9.969-28.513-9.969c-16.293,0-26.133,6.75-31.511,12.416c-12.109,12.712-12.229,30.179-12.109,33.712v59.156  h28.195V70.882v-0.198l-0.019-0.375c-0.059-2.409,0.591-9.574,4.431-13.541c0.87-0.888,3.474-3.573,11.014-3.573  c7.155,0,9.437,2.466,10.186,3.276c2.773,2.979,3.562,8.072,3.7,11.131l-0.059,3.533v59.156h28.188V71.394l0.078-3.158  c0.275-3.196,1.303-8.329,4.343-11.467c0.868-0.888,3.475-3.573,10.974-3.573c7.184,0,9.475,2.466,10.243,3.276  c3.495,3.771,3.811,11.013,3.672,13.125l-0.059,60.695h28.188V71.394C390.444,67.151,390.701,50.076,379.233,37.523"
   id="path8"
   style="fill:#ffffff" />
<path
   fill="#FAA634"
   d="M519.553,25.048v20.587c0,6.988,0.218,9.613,5.271,9.613c2.803,0,8.152-0.336,8.152-0.336l0.492,9.908  c0,0-6.75,1.423-10.264,1.423c-11.646,0-15.159-4.461-15.159-18.989V25.048h-6.356V14.646h6.356V0h11.508v14.646h13.618v10.403  H519.553z"
   id="path10"
   style="fill:#ffffff" />
<path
   fill="#FAA634"
   d="M548.826,14.646l9.592,40.78l1.54,1.718l1.501-1.718l9.79-40.78h11.704l-12.968,44.728  c0,0-2.606,6.771-10.105,6.771c-7.7,0-10.304-6.771-10.304-6.771l-12.751-44.728H548.826z"
   id="path12"
   style="fill:#ffffff" />
</svg>
